HIERARCHY
ROOT Hips
{
 OFFSET 0.000000 0.000000 0.000000
 CHANNELS 6 Xposition Yposition Zposition Yrotation Xrotation Zrotation
 JOINT Chest
 {
  OFFSET 0.000000 9.585900 0.002600
  CHANNELS 3 Yrotation Xrotation Zrotation
  JOINT Chest2
  {
   OFFSET 0.000000 9.601200 -0.005300
   CHANNELS 3 Yrotation Xrotation Zrotation
   JOINT Chest3
   {
    OFFSET 0.000000 9.561800 0.000000
    CHANNELS 3 Yrotation Xrotation Zrotation
    JOINT Chest4
    {
     OFFSET 0.000000 9.552100 0.000000
     CHANNELS 3 Yrotation Xrotation Zrotation
     JOINT Neck
     {
      OFFSET 0.000000 14.453000 0.000000
      CHANNELS 3 Yrotation Xrotation Zrotation
      JOINT Head
      {
       OFFSET 0.000000 8.936500 -0.011300
       CHANNELS 3 Yrotation Xrotation Zrotation
       End Site
       {
        OFFSET 0.000000 17.073600 -0.006000
       }
      }
     }
     JOINT RightCollar
     {
      OFFSET -2.921100 9.558500 0.000000
      CHANNELS 3 Yrotation Xrotation Zrotation
      JOINT RightShoulder
      {
       OFFSET -13.519700 0.000000 0.000000
       CHANNELS 3 Yrotation Xrotation Zrotation
       JOINT RightElbow
       {
        OFFSET 0.000000 -29.696600 0.000000
        CHANNELS 3 Yrotation Xrotation Zrotation
        JOINT RightWrist
        {
         OFFSET 0.000000 -24.004700 0.000000
         CHANNELS 3 Yrotation Xrotation Zrotation
         End Site
         {
          OFFSET 0.000000 -17.728500 0.000000
         }
        }
       }
      }
     }
     JOINT LeftCollar
     {
      OFFSET 2.921100 9.558500 0.000000
      CHANNELS 3 Yrotation Xrotation Zrotation
      JOINT LeftShoulder
      {
       OFFSET 13.519700 0.000000 0.000000
       CHANNELS 3 Yrotation Xrotation Zrotation
       JOINT LeftElbow
       {
        OFFSET 0.000000 -29.696600 0.000000
        CHANNELS 3 Yrotation Xrotation Zrotation
        JOINT LeftWrist
        {
         OFFSET 0.000000 -24.004700 0.000000
         CHANNELS 3 Yrotation Xrotation Zrotation
         End Site
         {
          OFFSET 0.000000 -17.728500 0.000000
         }
        }
       }
      }
     }
    }
   }
  }
 }
 JOINT RightHip
 {
  OFFSET -7.771700 -0.012900 -0.001300
  CHANNELS 3 Yrotation Xrotation Zrotation
  JOINT RightKnee
  {
   OFFSET 0.000000 -40.869800 0.001200
   CHANNELS 3 Yrotation Xrotation Zrotation
   JOINT RightAnkle
   {
    OFFSET 0.000000 -39.717900 0.002100
    CHANNELS 3 Yrotation Xrotation Zrotation
    JOINT RightToe
    {
     OFFSET 0.000000 -4.965400 11.033500
     CHANNELS 3 Yrotation Xrotation Zrotation
     End Site
     {
      OFFSET 0.000000 -1.423100 5.872300
     }
    }
   }
  }
 }
 JOINT LeftHip
 {
  OFFSET 7.771700 -0.012900 -0.001300
  CHANNELS 3 Yrotation Xrotation Zrotation
  JOINT LeftKnee
  {
   OFFSET 0.000000 -40.869800 0.001200
   CHANNELS 3 Yrotation Xrotation Zrotation
   JOINT LeftAnkle
   {
    OFFSET 0.000000 -39.717900 0.002100
    CHANNELS 3 Yrotation Xrotation Zrotation
    JOINT LeftToe
    {
     OFFSET 0.000000 -4.965400 11.033500
     CHANNELS 3 Yrotation Xrotation Zrotation
     End Site
     {
      OFFSET 0.000000 -1.423100 5.872300
     }
    }
   }
  }
 }
}
MOTION
Frames: 16
Frame Time: 0.008333
0.000000 85.388000 0.000000 0.000000 -5.767877 0.000000 0.000000 11.653817 0.000000 0.000000 -5.885947 0.000000 0.000000 -0.000000 0.000000 0.000000 -0.000000 0.000000 0.000000 12.528835 0.000000 0.000000 0.711642 0.000000 0.000000 -0.000000 0.000000 0.000000 0.000000 -90.000000 0.000000 -2.309062 0.000000 0.000000 2.309062 0.000000 0.000000 -0.000000 0.000000 0.000000 -0.000000 90.000000 0.000000 -2.309062 0.000000 0.000000 2.309062 0.000000 0.000000 8.520406 0.000000 0.000000 1.905762 0.000000 -0.000000 -4.658285 0.000000 0.000000 -0.000000 0.000000 0.000000 8.520406 0.000000 0.000000 1.905762 0.000000 -0.000000 -4.658285 0.000000 0.000000 -0.000000 0.000000
-16.537364 58.325352 59.115913 -173.311147 -29.607183 -4.935892 2.796940 22.037000 4.644981 0.289338 3.132447 0.470708 0.482495 5.075935 0.771925 2.192897 18.727466 3.160007 -2.002410 10.344074 -1.646461 -3.130896 -16.595014 -2.282132 1.567095 -1.494984 -0.754104 12.253093 -21.730500 -12.745694 130.881665 -67.466575 -106.334884 20.571245 -3.818311 -45.053178 -14.431880 -7.645200 -2.999560 -9.334199 -30.810839 9.473764 -130.351923 -62.975359 106.868728 -22.346921 16.563615 -11.650997 6.712686 -39.597414 -6.362977 -4.123705 68.531197 -10.313447 7.189820 7.063202 16.245157 -0.369114 -7.536091 0.278649 -6.574382 -47.310579 -3.143700 26.061890 60.357496 23.512746 -15.473320 36.598913 6.409039 0.783910 -19.077205 -5.719774
-16.542769 58.321747 59.120290 -173.312721 -29.576282 -4.919962 2.870197 21.993924 4.637913 0.303277 3.122571 0.466204 0.505015 5.060687 0.765006 2.278593 18.699020 3.148666 -1.641521 10.442177 -1.773534 -2.376137 -16.412503 -2.690929 1.376710 -1.464311 -0.585623 11.851943 -21.648899 -11.729345 130.672966 -67.131269 -106.645686 20.519436 -3.679454 -43.713202 -14.591350 -7.407828 -3.017317 -7.994705 -30.853961 8.678223 -129.187071 -62.136156 107.016709 -23.463590 17.158736 -13.555319 6.682124 -39.625380 -6.326697 -4.116557 68.521547 -10.395897 7.188000 7.046794 16.292394 -0.375431 -7.523136 0.278064 -6.568166 -47.335455 -3.154695 26.036639 60.367937 23.504072 -15.551708 36.468483 6.376238 0.743638 -18.980470 -5.715581
-16.547676 58.320286 59.121403 -173.333814 -29.566518 -4.896785 2.949336 21.961450 4.632686 0.315804 3.109949 0.461240 0.525246 5.041248 0.757359 2.356511 18.664333 3.134842 -1.295175 10.542065 -1.891868 -1.655011 -16.223201 -3.074611 1.215514 -1.399037 -0.457848 11.437741 -21.645663 -10.806029 130.499621 -66.851520 -106.828004 20.610281 -3.806939 -42.701393 -14.680058 -7.131983 -3.030992 -6.391985 -30.880444 7.780275 -128.644703 -61.557356 107.684504 -23.978083 17.454197 -14.224253 6.698409 -39.633808 -6.321014 -4.207835 68.504479 -10.529902 7.244209 7.048921 16.339365 -0.383925 -7.528393 0.267720 -6.555039 -47.330958 -3.157716 26.011822 60.380515 23.502341 -15.655011 36.286865 6.300986 0.714122 -18.841334 -5.695452
-16.551740 58.318681 59.123100 -173.375752 -29.550837 -4.862014 3.036331 21.916172 4.627635 0.310981 3.104673 0.458244 0.559525 5.010121 0.746466 2.427937 18.625481 3.120392 -0.978530 10.636272 -1.995176 -0.999377 -16.041956 -3.414512 0.999167 -1.282804 -0.257042 11.147552 -21.700851 -10.144379 130.337151 -66.681413 -106.845722 20.525679 -3.936037 -42.125568 -14.701257 -6.821311 -3.038456 -4.541752 -30.879789 6.804777 -128.896828 -61.272798 109.065204 -24.021201 17.519940 -13.745975 6.697203 -39.652867 -6.290163 -4.298427 68.488479 -10.682289 7.266909 7.038496 16.361284 -0.394819 -7.511626 0.272756 -6.526669 -47.333830 -3.163501 25.996761 60.386869 23.511759 -15.745010 36.119482 6.219087 0.681614 -18.704135 -5.666617
-16.553849 58.317841 59.123450 -173.424365 -29.540709 -4.828130 3.127672 21.876301 4.631721 0.321536 3.090342 0.453408 0.576611 4.988021 0.738948 2.495043 18.586654 3.106524 -0.705089 10.715098 -2.077837 -0.437047 -15.888162 -3.694355 0.816026 -1.156452 -0.118597 10.844126 -21.783932 -9.628230 130.289725 -66.769442 -106.830148 20.232135 -4.071538 -42.053585 -14.660955 -6.490499 -3.032481 -2.481985 -30.838171 5.765723 -129.875956 -61.124479 111.102272 -23.881573 17.452018 -12.578138 6.724608 -39.668922 -6.260430 -4.430873 68.477138 -10.861764 7.280593 7.038104 16.379360 -0.383155 -7.504278 0.281968 -6.503771 -47.332385 -3.153924 25.983062 60.394569 23.515234 -15.833097 35.969145 6.132089 0.658893 -18.552381 -5.634605
-16.558315 58.315077 59.126313 -173.508436 -29.513842 -4.750947 3.232675 21.824866 4.608696 0.335407 3.072375 0.447780 0.588550 4.972192 0.733707 2.557872 18.550356 3.094214 -0.482555 10.769888 -2.136568 0.016415 -15.779236 -3.905073 0.676957 -1.066910 -0.028581 10.539886 -21.821755 -9.280644 130.522930 -67.204280 -106.981210 19.881738 -4.188189 -42.390863 -14.560158 -6.153405 -3.012355 -0.294067 -30.741768 4.682246 -131.110755 -60.844063 113.370018 -23.645935 17.399076 -11.094770 6.836319 -39.706832 -6.306602 -4.542101 68.473510 -10.987859 7.322857 7.031251 16.385604 -0.398363 -7.495919 0.301529 -6.441122 -47.355935 -3.168153 26.011437 60.395040 23.545005 -15.945857 35.845214 6.033749 0.649143 -18.392762 -5.596974
-16.557005 58.312712 59.127519 -173.549944 -29.489213 -4.719215 3.301111 21.788727 4.610017 0.312420 3.070388 0.446101 0.633621 4.945197 0.723934 2.612834 18.518730 3.083491 -0.312123 10.794569 -2.171496 0.359453 -15.727381 -4.047187 0.559717 -0.891842 0.068471 10.334175 -21.904534 -9.178277 131.012698 -67.880113 -107.338500 19.599040 -4.349665 -43.059055 -14.395651 -5.828615 -2.981728 1.882770 -30.574070 3.597897 -132.041570 -60.285229 115.407982 -23.286295 17.398578 -9.530013 6.898968 -39.738631 -6.326313 -4.618057 68.474233 -11.062664 7.341062 7.028975 16.389995 -0.402867 -7.492873 0.309475 -6.531099 -47.376556 -3.065972 26.041250 60.401624 23.515216 -16.064250 35.749231 5.910092 0.662110 -18.246464 -5.550067
-16.550908 58.309331 59.129248 -173.592268 -29.455377 -4.703746 3.359166 21.751687 4.622762 0.339617 3.051000 0.441866 0.624853 4.945956 0.722040 2.654269 18.494925 3.071838 -0.189619 10.787177 -2.185095 0.601865 -15.736734 -4.127863 0.527796 -0.773442 0.120021 10.190728 -21.893225 -9.212343 131.574970 -68.603076 -107.825128 19.436840 -4.788128 -43.929566 -14.169666 -5.536171 -2.940950 3.912114 -30.320396 2.563923 -132.452650 -59.441841 117.087966 -22.859224 17.431902 -8.044390 7.001205 -39.783666 -6.349879 -4.756761 68.480718 -11.165103 7.357155 7.040296 16.400065 -0.414139 -7.502481 0.315819 -6.568638 -47.414294 -3.001623 25.956483 60.431738 23.448444 -16.137708 35.682796 5.777292 0.683484 -18.143958 -5.510817
-16.547449 58.305108 59.130911 -173.640163 -29.419873 -4.658226 3.394329 21.715372 4.599321 0.363347 3.046783 0.439668 0.609453 4.944719 0.722472 2.679638 18.482536 3.060225 -0.110174 10.753564 -2.185691 0.755814 -15.802281 -4.156372 0.561574 -0.707178 0.140725 10.167989 -21.785549 -9.363541 132.052048 -69.230674 -108.348058 19.374555 -5.458140 -44.816735 -13.885971 -5.280956 -2.895723 5.713762 -29.974645 1.620155 -132.398235 -58.362381 118.482882 -22.483642 17.483488 -6.699830 7.157443 -39.832349 -6.422653 -4.899609 68.497588 -11.262441 7.367440 7.057515 16.417778 -0.425988 -7.521666 0.322376 -6.532490 -47.455928 -3.007964 25.884004 60.453164 23.391881 -16.156628 35.649881 5.727771 0.675165 -18.085855 -5.496232
-16.539763 58.300269 59.132906 -173.682235 -29.374906 -4.629073 3.428884 21.682927 4.595099 0.356181 3.065227 0.439054 0.618745 4.912195 0.715094 2.682060 18.478571 3.057547 -0.077942 10.706956 -2.177684 0.831454 -15.915303 -4.144181 0.642715 -0.666479 0.135723 10.258411 -21.609019 -9.599968 132.285226 -69.688153 -108.739828 19.348359 -6.144690 -45.625446 -13.555012 -5.050700 -2.846721 7.267437 -29.542351 0.786633 -132.031396 -57.138520 119.692231 -22.229404 17.520115 -5.509919 7.378140 -39.900427 -6.509743 -5.109381 68.536533 -11.375880 7.334730 7.110526 16.404657 -0.403156 -7.572336 0.357692 -6.596773 -47.514438 -2.927500 25.842568 60.485999 23.310708 -16.164678 35.638048 5.677359 0.677822 -18.058032 -5.481004
-16.523776 58.297011 59.132145 -173.719545 -29.338684 -4.642455 3.462908 21.665616 4.628416 0.356989 3.056158 0.436644 0.588623 4.952602 0.715787 2.718769 18.437878 3.029536 -0.101181 10.645233 -2.131912 0.844144 -16.068242 -4.107539 0.736335 -0.652146 0.136533 10.428821 -21.387209 -9.890288 132.160818 -69.969512 -108.857121 19.325491 -6.794929 -46.304004 -13.199955 -4.835166 -2.755859 8.614350 -29.038345 0.059452 -131.547199 -55.900926 120.821512 -22.078546 17.550249 -4.458835 7.480519 -39.961307 -6.499094 -5.162616 68.573829 -11.387820 7.305384 7.116465 16.412654 -0.413598 -7.588771 0.364294 -6.754526 -47.565878 -2.763481 25.864918 60.516234 23.258163 -16.100628 35.678081 5.699656 0.636737 -18.095727 -5.493099
-16.514150 58.294370 59.130027 -173.743355 -29.306873 -4.614956 3.404212 21.714566 4.607299 0.415530 2.997374 0.415871 0.579291 4.955868 0.715376 2.616699 18.512270 3.020662 -0.073143 10.507083 -2.118649 0.807333 -16.254558 -4.060137 0.940757 -0.718531 0.076580 10.641572 -21.144714 -10.207612 131.751786 -70.114289 -108.728191 19.320204 -7.427528 -46.790694 -12.708549 -4.702942 -2.669578 9.834275 -28.476986 -0.573513 -131.105124 -54.777787 121.924386 -21.957363 17.580295 -3.502992 7.542685 -40.005919 -6.528714 -4.931853 68.615705 -11.153056 7.181034 7.119493 16.378474 -0.393918 -7.592550 0.387542 -6.773081 -47.606327 -2.743834 25.869792 60.526835 23.240781 -16.077591 35.693619 5.716072 0.602203 -18.113518 -5.499809
-16.502077 58.292984 59.126210 -173.765311 -29.277373 -4.594430 3.359292 21.734229 4.591873 0.371566 3.033430 0.422980 0.648437 4.898602 0.689165 2.540373 18.555782 3.024651 -0.113267 10.392548 -2.097699 0.724723 -16.469087 -4.005295 1.079590 -0.768792 0.017403 10.891941 -20.887139 -10.540419 131.225718 -70.164992 -108.465217 19.347811 -7.998028 -47.047895 -12.226158 -4.540368 -2.570117 10.996873 -27.870551 -1.114312 -130.794713 -53.849536 122.996983 -21.781390 17.599439 -2.565638 7.587065 -40.045239 -6.543142 -4.891921 68.638468 -11.104606 7.147639 7.114805 16.348014 -0.393911 -7.593501 0.410766 -6.839631 -47.648471 -2.691943 25.848055 60.555148 23.186060 -16.008697 35.712389 5.731146 0.565417 -18.145066 -5.506868
-16.487507 58.291963 59.122310 -173.786772 -29.238559 -4.580569 3.309603 21.749909 4.584434 0.348842 3.050760 0.426554 0.598739 4.935499 0.696838 2.539746 18.532598 2.987284 -0.176453 10.263960 -2.077565 0.598102 -16.710546 -3.941824 1.226713 -0.828251 -0.054090 11.095685 -20.638050 -10.857983 130.684252 -70.153690 -108.123863 19.393460 -8.453085 -47.070088 -11.718831 -4.381835 -2.458502 12.147913 -27.232782 -1.561259 -130.671707 -53.145233 124.032179 -21.512616 17.619017 -1.579293 7.561313 -40.102523 -6.489998 -4.913507 68.654706 -11.177940 7.132786 7.128285 16.312801 -0.384606 -7.608968 0.449184 -6.913943 -47.695431 -2.635732 25.870793 60.564950 23.184882 -15.975006 35.728457 5.717424 0.543972 -18.171934 -5.508202
-16.473610 58.292073 59.116616 -173.800870 -29.203137 -4.560326 3.252730 21.777646 4.570442 0.373147 3.021971 0.412862 0.535893 4.995053 0.715714 2.509216 18.538736 2.964441 -0.262390 10.121017 -2.057894 0.427783 -16.979244 -3.868826 1.386972 -0.887161 -0.145183 11.199983 -20.424118 -11.135440 130.164299 -70.112321 -107.709251 19.434569 -8.795285 -46.868865 -11.198459 -4.231048 -2.333652 13.318529 -26.576428 -1.917240 -130.765089 -52.658213 125.017826 -21.156812 17.637906 -0.529070 7.555578 -40.147928 -6.486273 -4.849033 68.677508 -11.128136 7.099126 7.116512 16.288264 -0.381512 -7.603591 0.456357 -6.967967 -47.736017 -2.601457 25.922191 60.565678 23.210388 -15.958866 35.741544 5.704775 0.517067 -18.197528 -5.501997
